<svg width="17" height="16" viewBox="0 0 17 16" fill="none" xmlns="http://www.w3.org/2000/svg">
<path fill-rule="evenodd" clip-rule="evenodd" d="M1.58594 12H7.62109C7.94471 12 8.20703 12.2064 8.20703 12.4609V15.2266C8.20703 15.4811 7.94471 15.6875 7.62109 15.6875H1.58594C1.26232 15.6875 1 15.4811 1 15.2266V12.4609C1 12.2064 1.26232 12 1.58594 12ZM2.17188 14.7656H7.03516V12.9219H2.17188V14.7656Z" fill="#0CE9D3"/>
<path d="M7.03516 14.7656V15.0156H7.28516V14.7656H7.03516ZM2.17188 14.7656H1.92188V15.0156H2.17188V14.7656ZM7.03516 12.9219H7.28516V12.6719H7.03516V12.9219ZM2.17188 12.9219V12.6719H1.92188V12.9219H2.17188ZM7.62109 11.75H1.58594V12.25H7.62109V11.75ZM8.45703 12.4609C8.45703 12.0157 8.02356 11.75 7.62109 11.75V12.25C7.86585 12.25 7.95703 12.397 7.95703 12.4609H8.45703ZM8.45703 15.2266V12.4609H7.95703V15.2266H8.45703ZM7.62109 15.9375C8.02356 15.9375 8.45703 15.6718 8.45703 15.2266H7.95703C7.95703 15.2905 7.86585 15.4375 7.62109 15.4375V15.9375ZM1.58594 15.9375H7.62109V15.4375H1.58594V15.9375ZM0.75 15.2266C0.75 15.6718 1.18347 15.9375 1.58594 15.9375V15.4375C1.34118 15.4375 1.25 15.2905 1.25 15.2266H0.75ZM0.75 12.4609V15.2266H1.25V12.4609H0.75ZM1.58594 11.75C1.18347 11.75 0.75 12.0157 0.75 12.4609H1.25C1.25 12.397 1.34118 12.25 1.58594 12.25V11.75ZM7.03516 14.5156H2.17188V15.0156H7.03516V14.5156ZM6.78516 12.9219V14.7656H7.28516V12.9219H6.78516ZM2.17188 13.1719H7.03516V12.6719H2.17188V13.1719ZM2.42188 14.7656V12.9219H1.92188V14.7656H2.42188Z" fill="#0CE9D3"/>
<path fill-rule="evenodd" clip-rule="evenodd" d="M1.58594 1H7.62109C7.94471 1 8.20703 1.26232 8.20703 1.58594V10.1406C8.20703 10.4642 7.94471 10.7266 7.62109 10.7266H1.58594C1.26232 10.7266 1 10.4642 1 10.1406V1.58594C1 1.26232 1.26232 1 1.58594 1ZM2.17188 9.55469H7.03516V2.17188H2.17188V9.55469Z" fill="#0CE9D3"/>
<path d="M7.03516 9.55469V9.80469H7.28516V9.55469H7.03516ZM2.17188 9.55469H1.92188V9.80469H2.17188V9.55469ZM7.03516 2.17188H7.28516V1.92188H7.03516V2.17188ZM2.17188 2.17188V1.92188H1.92188V2.17188H2.17188ZM7.62109 0.75H1.58594V1.25H7.62109V0.75ZM8.45703 1.58594C8.45703 1.12425 8.08278 0.75 7.62109 0.75V1.25C7.80664 1.25 7.95703 1.4004 7.95703 1.58594H8.45703ZM8.45703 10.1406V1.58594H7.95703V10.1406H8.45703ZM7.62109 10.9766C8.08278 10.9766 8.45703 10.6023 8.45703 10.1406H7.95703C7.95703 10.3262 7.80664 10.4766 7.62109 10.4766V10.9766ZM1.58594 10.9766H7.62109V10.4766H1.58594V10.9766ZM0.75 10.1406C0.75 10.6023 1.12425 10.9766 1.58594 10.9766V10.4766C1.4004 10.4766 1.25 10.3262 1.25 10.1406H0.75ZM0.75 1.58594V10.1406H1.25V1.58594H0.75ZM1.58594 0.75C1.12425 0.75 0.75 1.12425 0.75 1.58594H1.25C1.25 1.4004 1.4004 1.25 1.58594 1.25V0.75ZM7.03516 9.30469H2.17188V9.80469H7.03516V9.30469ZM6.78516 2.17188V9.55469H7.28516V2.17188H6.78516ZM2.17188 2.42188H7.03516V1.92188H2.17188V2.42188ZM2.42188 9.55469V2.17188H1.92188V9.55469H2.42188Z" fill="#0CE9D3"/>
<path fill-rule="evenodd" clip-rule="evenodd" d="M10.5046 1H15.7024C15.9811 1 16.207 1.20636 16.207 1.46094V4.22656C16.207 4.48114 15.9811 4.6875 15.7024 4.6875H10.5046C10.2259 4.6875 10 4.48114 10 4.22656V1.46094C10 1.20636 10.2259 1 10.5046 1ZM11.0093 3.76562H15.1978V1.92188H11.0093V3.76562Z" fill="#0CE9D3"/>
<path d="M15.1978 3.76562V4.01562H15.4478V3.76562H15.1978ZM11.0093 3.76562H10.7593V4.01562H11.0093V3.76562ZM15.1978 1.92188H15.4478V1.67188H15.1978V1.92188ZM11.0093 1.92188V1.67188H10.7593V1.92188H11.0093ZM15.7024 0.75H10.5046V1.25H15.7024V0.75ZM16.457 1.46094C16.457 1.04746 16.0974 0.75 15.7024 0.75V1.25C15.8648 1.25 15.957 1.36526 15.957 1.46094H16.457ZM16.457 4.22656V1.46094H15.957V4.22656H16.457ZM15.7024 4.9375C16.0974 4.9375 16.457 4.64004 16.457 4.22656H15.957C15.957 4.32224 15.8648 4.4375 15.7024 4.4375V4.9375ZM10.5046 4.9375H15.7024V4.4375H10.5046V4.9375ZM9.75 4.22656C9.75 4.64004 10.1096 4.9375 10.5046 4.9375V4.4375C10.3422 4.4375 10.25 4.32224 10.25 4.22656H9.75ZM9.75 1.46094V4.22656H10.25V1.46094H9.75ZM10.5046 0.75C10.1096 0.75 9.75 1.04746 9.75 1.46094H10.25C10.25 1.36526 10.3422 1.25 10.5046 1.25V0.75ZM15.1978 3.51562H11.0093V4.01562H15.1978V3.51562ZM14.9478 1.92188V3.76562H15.4478V1.92188H14.9478ZM11.0093 2.17188H15.1978V1.67188H11.0093V2.17188ZM11.2593 3.76562V1.92188H10.7593V3.76562H11.2593Z" fill="#0CE9D3"/>
<path fill-rule="evenodd" clip-rule="evenodd" d="M10.5046 6H15.7024C15.9811 6 16.207 6.26232 16.207 6.58594V15.1406C16.207 15.4642 15.9811 15.7266 15.7024 15.7266H10.5046C10.2259 15.7266 10 15.4642 10 15.1406V6.58594C10 6.26232 10.2259 6 10.5046 6ZM11.0093 14.5547H15.1978V7.17188H11.0093V14.5547Z" fill="#0CE9D3"/>
<path d="M15.1978 14.5547V14.8047H15.4478V14.5547H15.1978ZM11.0093 14.5547H10.7593V14.8047H11.0093V14.5547ZM15.1978 7.17188H15.4478V6.92188H15.1978V7.17188ZM11.0093 7.17188V6.92188H10.7593V7.17188H11.0093ZM15.7024 5.75H10.5046V6.25H15.7024V5.75ZM16.457 6.58594C16.457 6.1606 16.1529 5.75 15.7024 5.75V6.25C15.8093 6.25 15.957 6.36405 15.957 6.58594H16.457ZM16.457 15.1406V6.58594H15.957V15.1406H16.457ZM15.7024 15.9766C16.1529 15.9766 16.457 15.566 16.457 15.1406H15.957C15.957 15.3625 15.8093 15.4766 15.7024 15.4766V15.9766ZM10.5046 15.9766H15.7024V15.4766H10.5046V15.9766ZM9.75 15.1406C9.75 15.566 10.0541 15.9766 10.5046 15.9766V15.4766C10.3977 15.4766 10.25 15.3625 10.25 15.1406H9.75ZM9.75 6.58594V15.1406H10.25V6.58594H9.75ZM10.5046 5.75C10.0541 5.75 9.75 6.1606 9.75 6.58594H10.25C10.25 6.36405 10.3977 6.25 10.5046 6.25V5.75ZM15.1978 14.3047H11.0093V14.8047H15.1978V14.3047ZM14.9478 7.17188V14.5547H15.4478V7.17188H14.9478ZM11.0093 7.42188H15.1978V6.92188H11.0093V7.42188ZM11.2593 14.5547V7.17188H10.7593V14.5547H11.2593Z" fill="#0CE9D3"/>
</svg>
