<svg width="16" height="16" viewBox="0 0 16 16" fill="none" xmlns="http://www.w3.org/2000/svg">
<path d="M8.64 4.28C8.99346 4.28 9.28 3.99346 9.28 3.64C9.28 3.28654 8.99346 3 8.64 3C8.28654 3 8 3.28654 8 3.64C8 3.99346 8.28654 4.28 8.64 4.28Z" fill="#0CE9D3"/>
<path fill-rule="evenodd" clip-rule="evenodd" d="M0 7.57333C0 11.756 3.3907 15.1467 7.57333 15.1467C11.756 15.1467 15.1467 11.756 15.1467 7.57333C15.1467 3.3907 11.756 0 7.57333 0C3.3907 0 0 3.3907 0 7.57333ZM13.8667 7.57333C13.8667 11.049 11.049 13.8667 7.57333 13.8667C4.09762 13.8667 1.28 11.049 1.28 7.57333C1.28 4.09762 4.09762 1.28 7.57333 1.28C11.049 1.28 13.8667 4.09762 13.8667 7.57333Z" fill="#0CE9D3"/>
<path d="M7.85341 6L7.07448 9.02558C6.9336 9.57281 7.53325 10.0114 8.01208 9.71135V9.71135" stroke="#0CE9D3" stroke-width="1.28" stroke-linecap="round"/>
</svg>
