<svg width="17" height="17" viewBox="0 0 17 17" fill="none" xmlns="http://www.w3.org/2000/svg">
<path fill-rule="evenodd" clip-rule="evenodd" d="M16.6554 7.04794L14.6075 6.66401C14.4831 6.24983 14.3199 5.85254 14.1177 5.4788L15.3027 3.74653C15.4124 3.5862 15.3896 3.34501 15.2521 3.20789L13.7911 1.74669C13.6536 1.60922 13.4127 1.58707 13.2531 1.69641L11.5196 2.88197C11.1349 2.67453 10.7253 2.50823 10.298 2.38271L9.91616 0.345611C9.8803 0.154699 9.69464 0 9.49984 0H7.43369C7.23925 0 7.05324 0.154699 7.01702 0.345611L6.63094 2.40275C6.22129 2.52792 5.82853 2.69106 5.45862 2.89217L3.74761 1.72173C3.58727 1.61203 3.34606 1.63453 3.20893 1.77201L1.74757 3.23321C1.61009 3.37068 1.58794 3.61152 1.69729 3.77184L2.87523 5.49322C2.67692 5.86309 2.51623 6.25546 2.39316 6.66436L0.345295 7.04794C0.154715 7.08415 0 7.27014 0 7.46457V9.53051C0 9.72493 0.154715 9.91092 0.345295 9.94749L2.39175 10.3311C2.51658 10.7488 2.68114 11.1496 2.88438 11.5261L1.7198 13.2285C1.61009 13.3888 1.63259 13.63 1.77008 13.7668L3.23108 15.2276C3.36856 15.3655 3.60943 15.3873 3.76977 15.2786L5.47163 14.1138C5.83767 14.3118 6.22622 14.4728 6.63164 14.5972L7.01737 16.6551C7.05359 16.846 7.2396 17 7.43405 17H9.50054C9.69534 17 9.88065 16.846 9.91722 16.6551L10.2994 14.6176C10.7214 14.4932 11.1272 14.329 11.5083 14.1251L13.2316 15.3043C13.392 15.414 13.6332 15.3915 13.7703 15.2533L15.2306 13.7932C15.3688 13.6553 15.3906 13.4152 15.2816 13.2545L14.1089 11.5412C14.316 11.1601 14.4824 10.7547 14.6093 10.3318L16.6554 9.94819C16.8456 9.91163 17 9.72564 17 9.53121V7.46528C17.0014 7.27014 16.8463 7.08415 16.6554 7.04794ZM8.50091 12.0458C6.54307 12.0458 4.95548 10.4583 4.95548 8.49965C4.95548 6.54236 6.54307 4.95458 8.50091 4.95458C10.4595 4.95458 12.0474 6.54236 12.0474 8.49965C12.0474 10.4583 10.4588 12.0458 8.50091 12.0458ZM9.96608 8.5C9.96608 9.30914 9.31008 9.96507 8.50086 9.96507C7.69164 9.96507 7.03564 9.30914 7.03564 8.5C7.03564 7.69086 7.69164 7.03493 8.50086 7.03493C9.31008 7.03493 9.96608 7.69086 9.96608 8.5Z" fill="#0CE9D3"/>
</svg>
