<svg width="16" height="19" viewBox="0 0 16 19" fill="none" xmlns="http://www.w3.org/2000/svg">
<path opacity="0.56" d="M7.765 9.2813C7.84624 9.1091 8.01387 9 8.19745 9C8.3809 9 8.54853 9.1091 8.62977 9.2813L9.35655 10.8232L10.9819 11.0703C11.1635 11.0979 11.3144 11.2311 11.3711 11.4138C11.4279 11.5965 11.3806 11.7971 11.2491 11.9313L10.073 13.1313L10.3461 14.7986C10.3541 14.8348 10.3582 14.8726 10.3582 14.9113C10.3582 15.1899 10.1427 15.4157 9.87677 15.4161H9.87539C9.79867 15.4161 9.72157 15.3969 9.65101 15.3581L8.19732 14.558L6.74364 15.3581C6.58116 15.4475 6.38427 15.4325 6.23585 15.3196C6.08731 15.2067 6.01297 15.0153 6.04399 14.8259L6.32161 13.1313L5.14556 11.9313C5.01422 11.7971 4.96688 11.5965 5.02363 11.4138C5.08026 11.2311 5.23119 11.0979 5.41289 11.0703L7.03822 10.8231L7.765 9.2813Z" fill="#FF6B6B"/>
<path fill-rule="evenodd" clip-rule="evenodd" d="M14.0697 2.93517H11.3511C11.4863 2.65915 11.5631 2.34674 11.5631 2.01563C11.5631 0.90413 10.7033 0 9.64656 0C9.09697 0 8.60098 0.244907 8.25114 0.636102C7.90144 0.244907 7.40546 0 6.85587 0C5.79903 0 4.93936 0.90413 4.93936 2.01563C4.93936 2.34674 5.01617 2.65915 5.15133 2.93517H1.91651C0.859666 2.93517 0 3.8393 0 4.95066V6.41811C0 6.72082 0.23327 6.96615 0.521092 6.96615H0.558138V16.6909C0.558138 17.8024 1.4178 18.7066 2.47464 18.7066H13.5115C14.5682 18.7066 15.428 17.8024 15.428 16.6909V6.96615H15.4651C15.7529 6.96615 15.9862 6.72082 15.9862 6.41811V4.95066C15.9862 3.8393 15.1265 2.93517 14.0697 2.93517ZM1.98962 4.03126C1.46716 4.03126 1.04218 4.44372 1.04218 4.95066V5.87006H7.73005V4.03126H1.98962ZM14.944 5.87006V4.95066C14.944 4.44372 14.5518 4.03126 14.0697 4.03126H7.73139V5.87006H14.944ZM10.5209 2.01563C10.5209 1.50855 10.1286 1.09609 9.64656 1.09609C9.16441 1.09609 8.77224 1.50855 8.77224 2.01563V2.93517H9.64656C10.1286 2.93517 10.5209 2.52271 10.5209 2.01563ZM5.98154 2.01563C5.98154 1.50855 6.37372 1.09609 6.85587 1.09609C7.33788 1.09609 7.73005 1.50855 7.73005 2.01563V2.93517H6.85587C6.37372 2.93517 5.98154 2.52271 5.98154 2.01563ZM13.5115 17.6105C13.9935 17.6105 14.3858 17.198 14.3858 16.6909V6.96615H1.60032V16.6909C1.60032 17.198 1.99263 17.6105 2.47464 17.6105H13.5115Z" fill="#FF6B6B"/>
</svg>
