<svg width="16" height="13" viewBox="0 0 16 13" fill="none" xmlns="http://www.w3.org/2000/svg">
<path fill-rule="evenodd" clip-rule="evenodd" d="M8.00024 0C3.58912 0 0 3.62271 0 8.07656C0 9.73259 0.498053 11.3276 1.43993 12.6913C1.57312 12.8838 1.79147 13 2.02456 13H5.75605C5.75605 11.7804 6.60883 10.6914 7.78998 10.5825L9.59144 7.18061C9.77791 6.8301 10.2117 6.69758 10.5576 6.88531C10.9039 7.07209 11.0356 7.50855 10.8501 7.85953L9.22705 10.9224C9.88114 11.3358 10.3387 12.1631 10.3387 13H13.9754C14.2076 13 14.4259 12.8848 14.5601 12.6913C15.5019 11.3276 16 9.73259 16 8.07656C16.001 3.62319 12.4118 0 8.00024 0ZM8.00024 2.33928C8.48259 2.33928 8.87266 2.73348 8.87266 3.21987C8.87266 3.70578 8.48259 4.09998 8.00024 4.09998C7.51836 4.09998 7.12876 3.70578 7.12876 3.21987C7.12876 2.73396 7.51836 2.33928 8.00024 2.33928ZM2.68863 8.2619C2.68863 8.74781 3.0787 9.14201 3.56105 9.14201C4.04246 9.14201 4.43253 8.74781 4.43253 8.2619C4.43253 7.77503 4.04246 7.38131 3.56105 7.38131C3.0787 7.38131 2.68863 7.77503 2.68863 8.2619ZM11.568 8.2619C11.568 8.74781 11.9575 9.14201 12.4404 9.14201C12.9218 9.14201 13.3128 8.74781 13.3128 8.2619C13.3128 7.77503 12.9218 7.38131 12.4404 7.38131C11.9575 7.38131 11.568 7.77503 11.568 8.2619Z" fill="#0CE9D3"/>
</svg>
