<?xml version="1.0" encoding="iso-8859-1"?>
<!-- Generator: Adobe Illustrator 18.0.0, SVG Export Plug-In . SVG Version: 6.00 Build 0)  -->
<!DOCTYPE svg PUBLIC "-//W3C//DTD SVG 1.1//EN" "http://www.w3.org/Graphics/SVG/1.1/DTD/svg11.dtd">
<svg version="1.1" id="Capa_1" xmlns="http://www.w3.org/2000/svg" xmlns:xlink="http://www.w3.org/1999/xlink" x="0px" y="0px"
	 viewBox="0 0 297 297" style="enable-background:new 0 0 297 297;" xml:space="preserve">
<g>
	<path style="fill: {{{accentColor}}}" d="M119.306,51.203l-1.612,21.974c-0.126,1.716,0.644,3.376,2.037,4.387c1.391,1.012,3.209,1.232,4.801,0.582l20.401-8.325
		l20.401,8.325c0.605,0.247,1.243,0.368,1.877,0.368c1.035,0,2.061-0.323,2.924-0.95c1.393-1.011,2.163-2.671,2.037-4.387
		l-1.612-21.974l14.221-16.831c1.11-1.314,1.463-3.109,0.93-4.745c-0.531-1.637-1.871-2.882-3.542-3.293l-21.397-5.257
		L149.158,2.352C148.251,0.89,146.654,0,144.933,0c-1.721,0-3.32,0.89-4.226,2.352l-11.611,18.725l-21.399,5.257
		c-1.671,0.411-3.011,1.656-3.542,3.293c-0.532,1.636-0.18,3.431,0.93,4.745L119.306,51.203z"/>
	<path style="fill: {{{accentColor}}}" d="M288.732,177.902h-71.919V97.219c0-3.845-3.117-6.962-6.962-6.962H87.148c-3.845,0-6.962,3.117-6.962,6.962v45.625H8.268
		c-3.845,0-6.962,3.117-6.962,6.962v140.232c0,3.845,3.117,6.962,6.962,6.962h280.465c3.845,0,6.962-3.117,6.962-6.962V184.864
		C295.694,181.019,292.577,177.902,288.732,177.902z M74.799,239.825c0,4.12-3.339,7.459-7.459,7.459H54.252v6.969H67.34
		c4.12,0,7.459,3.339,7.459,7.459c0,4.12-3.339,7.459-7.459,7.459H46.793c-4.12,0-7.459-3.339-7.459-7.459v-21.887
		c0-4.12,3.339-7.459,7.459-7.459h13.088v-7.415H46.793c-4.12,0-7.459-3.339-7.459-7.459s3.339-7.459,7.459-7.459H67.34
		c4.12,0,7.459,3.339,7.459,7.459V239.825z M155.959,166.032c0,4.12-3.339,7.459-7.459,7.459s-7.459-3.339-7.459-7.459v-24.274
		h-1.676c-4.12,0-7.459-3.339-7.459-7.459c0-4.12,3.339-7.459,7.459-7.459h9.135c4.12,0,7.459,3.339,7.459,7.459V166.032z
		 M259.721,261.712c0,4.12-3.339,7.459-7.459,7.459h-20.548c-4.12,0-7.459-3.339-7.459-7.459c0-4.12,3.339-7.459,7.459-7.459h13.089
		v-6.969h-13.089c-4.12,0-7.459-3.339-7.459-7.459c0-4.12,3.339-7.459,7.459-7.459h13.089v-7.415h-13.089
		c-4.12,0-7.459-3.339-7.459-7.459s3.339-7.459,7.459-7.459h20.548c4.12,0,7.459,3.339,7.459,7.459V261.712z"/>
</g>
<g>
</g>
<g>
</g>
<g>
</g>
<g>
</g>
<g>
</g>
<g>
</g>
<g>
</g>
<g>
</g>
<g>
</g>
<g>
</g>
<g>
</g>
<g>
</g>
<g>
</g>
<g>
</g>
<g>
</g>
</svg>
