<svg width="16" height="19" viewBox="0 0 16 19" fill="none" xmlns="http://www.w3.org/2000/svg">
<path d="M14.2645 11.2709L14.7745 11.2709V11.271V11.271V11.271V11.271V11.271V11.271V11.271V11.271V11.271V11.271V11.271V11.271V11.271V11.2711V11.2711V11.2711V11.2711V11.2711V11.2711V11.2711V11.2711V11.2711V11.2711V11.2712V11.2712V11.2712V11.2712V11.2712V11.2712V11.2712V11.2712V11.2712V11.2712V11.2712V11.2712V11.2713V11.2713V11.2713V11.2713V11.2713V11.2713V11.2713V11.2713V11.2713V11.2713V11.2713V11.2714V11.2714V11.2714V11.2714V11.2714V11.2714V11.2714V11.2714V11.2715V11.2715V11.2715V11.2715V11.2715V11.2715V11.2715V11.2715V11.2715V11.2716V11.2716V11.2716V11.2716V11.2716V11.2716V11.2716V11.2716V11.2717V11.2717V11.2717V11.2717V11.2717V11.2717V11.2717V11.2717V11.2718V11.2718V11.2718V11.2718V11.2718V11.2718V11.2718V11.2718V11.2718V11.2718V11.2718V11.2718V11.2718V11.2719V11.2719V11.2719V11.2719V11.2719V11.2719V11.2719V11.2719V11.2719V11.2719V11.2719V11.2719V11.2719V11.272V11.272V11.272V11.272V11.272V11.272V11.272V11.272V11.272V11.272V11.272V11.2721V11.2721V11.2721V11.2721V11.2721V11.2721V11.2721V11.2721V11.2721V11.2721V11.2721V11.2721V11.2722V11.2722V11.2722V11.2722V11.2722V11.2722V11.2722V11.2722V11.2722V11.2722V11.2722V11.2723V11.2723V11.2723V11.2723V11.2723V11.2723V11.2723V11.2723V11.2723V11.2723V11.2724V11.2724V11.2724V11.2724V11.2724V11.2724V11.2724V11.2724V11.2724V11.2724V11.2725V11.2725V11.2725V11.2725V11.2725V11.2725V11.2725V11.2725V11.2725V11.2725V11.2726V11.2726V11.2726V11.2726V11.2726V11.2726V11.2726V11.2726V11.2726V11.2727V11.2727V11.2727V11.2727V11.2727V11.2727V11.2727V11.2727V11.2727V11.2727V11.2728V11.2728V11.2728V11.2728V11.2728V11.2728V11.2728V11.2728V11.2728V11.2729V11.2729V11.2729V11.2729V11.2729V11.2729V11.2729V11.2729V11.273V11.273V11.273V11.273V11.273V11.273V11.273V11.273V11.273V11.2731V11.2731V11.2731V11.2731V11.2731V11.2731V11.2731V11.2731V11.2732V11.2732V11.2732V11.2732V11.2732V11.2732V11.2732V11.2732V11.2733V11.2733V11.2733V11.2733V11.2733V11.2733V11.2733V11.2733V11.2734V11.2734V11.2734V11.2734V11.2734V11.2734V11.2734V11.2734V11.2735V11.2735V11.2735V11.2735V11.2735V11.2735V11.2735V11.2735V11.2736V11.2736V11.2736V11.2736V11.2736V11.2736V11.2736V11.2737V11.2737V11.2737V11.2737V11.2737V11.2737V11.2737V11.2738V11.2738V11.2738V11.2738V11.2738V11.2738V11.2738V11.2738V11.2739V11.2739V11.2739V11.2739V11.2739V11.2739V11.2739V11.274V11.274V11.274V11.274V11.274V11.274V11.274V11.2741V11.2741V11.2741V11.2741V11.2741V11.2741V11.2741V11.2742V11.2742V11.2742V11.2742V11.2742V11.2742V11.2743V11.2743V11.2743V11.2743V11.2743V11.2743V11.2743V11.2744V11.2744V11.2744V11.2744V11.2744V11.2744V11.2744V11.2745V11.2745V11.2745V11.2745V11.2745V11.2745V11.2746V11.2746V11.2746V11.2746V11.2746V11.2746V11.2747V11.2747V11.2747V11.2747V11.2747V11.2747V11.2747V11.2748V11.2748V11.2748V11.2748V11.2748V11.2748V11.2749V11.2749V11.2749V11.2749V11.2749V11.2749V11.275V11.275V11.275V11.275V11.275V11.275V11.2751V11.2751V11.2751V11.2751V11.2751V11.2751V11.2752V11.2752V11.2752V11.2752V11.2752V11.2752V11.2753V11.2753V11.2753V11.2753V11.2753V12.205L13.9931 11.7122L13.9856 11.708C13.9752 11.7023 13.9553 11.692 13.9263 11.6788C13.8682 11.6523 13.7736 11.6146 13.6447 11.5798C13.388 11.5105 12.9904 11.4519 12.4652 11.5219L12.4649 11.5219C10.9087 11.7285 9.72883 13.0023 9.72883 14.2435C9.72883 14.8473 9.99986 15.3271 10.4454 15.6444C10.8993 15.9676 11.5593 16.1362 12.3297 16.0336L12.33 16.0335C13.8876 15.8269 15.0674 14.5537 15.0674 13.3112V1.34544C15.0674 0.979748 14.9351 0.75342 14.7875 0.63783C14.6448 0.526094 14.4205 0.46428 14.1118 0.55959L6.70404 3.04337L6.69408 3.04671L6.69405 3.04661C6.37311 3.14695 6.05277 3.39295 5.80945 3.73595C5.56682 4.078 5.42776 4.47902 5.42776 4.84895V13.3002V13.3002V13.3002V13.3002V13.3003V13.3003V13.3003V13.3003V13.3003V13.3004V13.3004V13.3004V13.3005V13.3005V13.3005V13.3006V13.3006V13.3007V13.3007V13.3008V13.3008V13.3009V13.3009V13.301V13.3011V13.3011V13.3012V13.3013V13.3013V13.3014V13.3015V13.3016V13.3017V13.3018V13.3018V13.3019V13.302V13.3021V13.3022V13.3023V13.3024V13.3025V13.3026V13.3027V13.3028V13.3029V13.3031V13.3032V13.3033V13.3034V13.3035V13.3037V13.3038V13.3039V13.3041V13.3042V13.3043V13.3045V13.3046V13.3047V13.3049V13.305V13.3052V13.3053V13.3055V13.3056V13.3058V13.3059V13.3061V13.3063V13.3064V13.3066V13.3068V13.3069V13.3071V13.3073V13.3074V13.3076V13.3078V13.308V13.3082V13.3083V13.3085V13.3087V13.3089V13.3091V13.3093V13.3095V13.3097V13.3099V13.3101V13.3103V13.3105V13.3107V13.3109V13.3111V13.3113V13.3115V13.3117V13.3119V13.3122V13.3124V13.3126V13.3128V13.313V13.3133V13.3135V13.3137V13.3139V13.3142V13.3144V13.3146V13.3149V13.3151V13.3153V13.3156V13.3158V13.3161V13.3163V13.3166V13.3168V13.317V13.3173V13.3175V13.3178V13.318V13.3183V13.3186V13.3188V13.3191V13.3193V13.3196V13.3199V13.3201V13.3204V13.3207V13.3209V13.3212V13.3215V13.3217V13.322V13.3223V13.3225V13.3228V13.3231V13.3234V13.3237V13.3239V13.3242V13.3245V13.3248V13.3251V13.3254V13.3256V13.3259V13.3262V13.3265V13.3268V13.3271V13.3274V13.3277V13.328V13.3283V13.3286V13.3289V13.3292V13.3295V13.3298V13.3301V13.3304V13.3307V13.331V13.3313V13.3316V13.3319V13.3322V13.3325V13.3328V13.3331V13.3334V13.3338V13.3341V13.3344V13.3347V13.335V13.3353V13.3356V13.336V13.3363V13.3366V13.3369V13.3372V13.3376V13.3379V13.3382V13.3385V13.3388V13.3392V13.3395V13.3398V13.3401V13.3405V13.3408V13.3411V13.3415V13.3418V13.3421V13.3424V13.3428V13.3431V13.3434V13.3438V13.3441V13.3444V13.3448V13.3451V13.3454V13.3458V13.3461V13.3464V13.3468V13.3471V13.3474V13.3478V13.3481V13.3485V13.3488V13.3491V13.3495V13.3498V13.3501V13.3505V13.3508V13.3512V13.3515V13.3518V13.3522V13.3525V13.3529V13.3532V13.3535V13.3539V13.3542V13.3546V13.3549V13.3553V13.3556V13.3559V13.3563V13.3566V13.357V13.3573V13.3577V13.358V13.3583V13.3587V13.359V13.3594V13.3597V13.3601V13.3604V13.3607V13.3611V13.3614V13.3618V13.3621V13.3625V13.3628V13.3631V13.3635V13.3638V13.3642V13.3645V13.3648V13.3652V13.3655V13.3659V13.3662V13.3666V13.3669V13.3672V13.3676V13.3679V13.3683V13.3686V13.3689V13.3693V13.3696V13.3699V13.3703V13.3706V13.371V13.3713V13.3716V13.372V13.3723V13.3726V13.373V13.3733V13.3736V13.374V13.3743V13.3746V13.375V13.3753V13.3756V13.376V13.3763V13.3766V13.377V13.3773V13.3776V13.3779V13.3783V13.3786V13.3789V13.3793V13.3796V13.3799V13.3802V13.3805V13.3809V13.3812V13.3815V13.3818V13.3822V13.3825V13.3828V13.3831V13.3834V13.3837V13.3841V13.3844V13.3847V13.385V13.3853V13.3856V13.3859V13.3862V13.3866V13.3869V13.3872V13.3875V13.3878V13.3881V13.3884V13.3887V13.389V13.3893V13.3896V13.3899V13.3902V13.3905V13.3908V13.3911V13.3914V13.3917V13.392V13.3923V13.3925V13.3928V13.3931V13.3934V13.3937V13.394V13.3943V13.3946V13.3948V13.3951V13.3954V13.3957V13.396V13.3962V13.3965V13.3968V13.397V13.3973V13.3976V13.3979V13.3981V13.3984V13.3987V13.3989V13.3992V13.3995V13.3997V13.4V13.4002V13.4005V13.4007V13.401V13.4012V13.4015V13.4017V13.402V13.4022V13.4025V13.4027V13.403V13.4032V13.4035V13.4037V13.4039V13.4042V13.4044V13.4046V13.4049V13.4051V13.4053V13.4055V13.4058V13.406V13.4062V13.4064V13.4067V13.4069V13.4071V13.4073V13.4075V13.4077V13.4079V13.4081V13.4083V13.4085V13.4087V13.4089V13.4091V13.4093V13.4095V13.4097V13.4099V13.4101V13.4103V13.4105V13.4107V13.4109V13.411V13.4112V13.4114V13.4116V13.4117V13.4119V13.4121V13.4122V13.4124V13.4126V13.4127V13.4129V13.4131V13.4132V13.4134V13.4135V13.4137V13.4138V13.414V13.4141V13.4143V13.4144V13.4145V13.4147V13.4148V13.4149V13.4151V13.4152V13.4153V13.4154V13.4156V13.4157V13.4158V13.4159V13.416V13.4161V13.4163V13.4164V13.4165V13.4166V13.4167V13.4168V13.4169V13.417V13.417V13.4171V13.4172V13.4173V13.4174V13.4175V13.4175V13.4176V13.4177V13.4178V13.4178V13.4179V13.418V13.418V13.4181V13.4181V13.4182V13.4182V13.4183V13.4183V13.4184V13.4184V13.4185V13.4185V13.4185V13.4186V13.4186V13.4186V13.4186V13.4187V13.4187V14.4355L4.61911 13.8377C4.61399 13.8346 4.60236 13.8278 4.58405 13.8187C4.54405 13.7989 4.47145 13.7675 4.3641 13.7387C4.1513 13.6817 3.79007 13.6318 3.26031 13.7141L14.2645 11.2709ZM14.2645 11.2709L14.7745 11.2709V11.2707V11.2704V11.27V11.2695V11.2688V11.2681V11.2672V11.2662V11.2651V11.2639V11.2626V11.2612V11.2596V11.2579V11.2562V11.2543V11.2523V11.2502V11.248V11.2457V11.2432V11.2407V11.2381V11.2353V11.2324V11.2295V11.2264V11.2232V11.2199V11.2166V11.2131V11.2095V11.2058V11.202V11.1981V11.1941V11.1899V11.1857V11.1814V11.177V11.1725V11.1679V11.1632V11.1584V11.1535V11.1484V11.1433V11.1381V11.1328V11.1275V11.122V11.1164V11.1107V11.1049V11.0991V11.0931V11.087V11.0809V11.0746V11.0683V11.0619V11.0554V11.0488V11.0421V11.0353V11.0284V11.0214V11.0144V11.0072V11V10.9927V10.9853V10.9778V10.9702V10.9626V10.9548V10.947V10.9391V10.9311V10.923V10.9148V10.9066V10.8982V10.8898V10.8813V10.8728V10.8641V10.8554V10.8465V10.8377V10.8287V10.8196V10.8105V10.8013V10.792V10.7826V10.7732V10.7637V10.7541V10.7444V10.7347V10.7249V10.715V10.705V10.695V10.6849V10.6747V10.6645V10.6542V10.6438V10.6333V10.6228V10.6122V10.6015V10.5908V10.58V10.5691V10.5582V10.5472V10.5361V10.525V10.5138V10.5025V10.4911V10.4797V10.4683V10.4568V10.4452V10.4335V10.4218V10.41V10.3982V10.3863V10.3743V10.3623V10.3502V10.3381V10.3259V10.3137V10.3014V10.289V10.2766V10.2641V10.2515V10.2389V10.2263V10.2136V10.2008V10.188V10.1751V10.1622V10.1493V10.1362V10.1232V10.11V10.0968V10.0836V10.0703V10.057V10.0436V10.0302V10.0167V10.0032V9.98963V9.97601V9.96234V9.94863V9.93487V9.92106V9.90721V9.89332V9.87938V9.8654V9.85137V9.83731V9.82319V9.80904V9.79485V9.78061V9.76633V9.75202V9.73766V9.72326V9.70883V9.69435V9.67984V9.66529V9.6507V9.63608V9.62141V9.60672V9.59198V9.57721V9.56241V9.54757V9.5327V9.51779V9.50285V9.48788V9.47288V9.45784V9.44278V9.42768V9.41255V9.39739V9.3822V9.36698V9.35174V9.33646V9.32116V9.30583V9.29047V9.27508V9.25967V9.24424V9.22877V9.21328V9.19777V9.18224V9.16668V9.15109V9.13548V9.11986V9.10421V9.08853V9.07284V9.05712V9.04139V9.02563V9.00986V8.99407V8.97825V8.96242V8.94657V8.93071V8.91483V8.89893V8.88301V8.86708V8.85113V8.83517V8.8192V8.80321V8.78721V8.77119V8.75516V8.73912V8.72307V8.707V8.69093V8.67484V8.65875V8.64264V8.62653V8.6104V8.59427V8.57813V8.56198V8.54583V8.52967V8.5135V8.49733V8.48115V8.46496V8.44877V8.43258V8.41639V8.40019V8.38398V8.36778V8.35157V8.33536V8.31915V8.30294V8.28673V8.27052V8.25431V8.2381V8.22189V8.20569V8.18948V8.17328V8.15708V8.14089V8.1247V8.10851V8.09233V8.07615V8.05998V8.04382V8.02766V8.01151V7.99537V7.97923V7.9631V7.94698V7.93087V7.91477V7.89868V7.8826V7.86653V7.85047V7.83443V7.81839V7.80237V7.78636V7.77036V7.75438V7.73841V7.72246V7.70652V7.6906V7.67469V7.6588V7.64293V7.62707V7.61123V7.59541V7.57961V7.56382V7.54806V7.53231V7.51659V7.50089V7.4852V7.46954V7.4539V7.43828V7.42269V7.40712V7.39157V7.37604V7.36054V7.34507V7.32962V7.3142V7.2988V7.28343V7.26808V7.25277V7.23748V7.22222V7.20698V7.19178V7.17661V7.16146V7.14635V7.13127V7.11622V7.1012V7.08621V7.07126V7.05633V7.04144V7.02659V7.01177V6.99698V6.98223V6.96752V6.95284V6.93819V6.92359V6.90902V6.89449V6.87999V6.86554V6.85112V6.83675V6.82241V6.80811V6.79386V6.77964V6.76547V6.75134V6.73725V6.7232V6.7092V6.69524V6.68132V6.66745V6.65363V6.63984V6.62611V6.61242V6.59878V6.58518V6.57163V6.55813V6.54468V6.53128V6.51792V6.50462V6.49136V6.47816V6.46501V6.45191V6.43886V6.42586V6.41291V6.40002V6.38718V6.37439V6.36166V6.34899V6.33637V6.3238V6.31129V6.29884V6.28644V6.2741V6.26182V6.2496V6.23743V6.22532V6.21328V6.20129V6.18936V6.1775V6.16569V6.15395V6.14227V6.13065V6.11909V6.1076V6.09617V6.08481V6.0735V6.06227V6.0511V6.03999V6.02895V6.01798V6.00708V5.99624V5.98547V5.97477V5.96414V5.95357V5.94308V5.93266V5.9223V5.91202V5.90181V5.89167V5.8816V5.87161V5.86169V5.85184V5.84207V5.83237V5.82274V5.81319V5.80372V5.79432V5.785V5.77575V5.76659V5.7575V5.74848V5.73955V5.7307V5.72192V5.71323V5.70461V5.69608V5.68763V5.67925V5.67096V5.66276V5.65463V5.64659V5.63864V5.63076V5.62297V5.61527V5.60765V5.60012V5.59267V5.58532V5.57804V5.57086V5.56376V5.55675V5.54983V5.543V5.53626V5.52961V5.52305V5.51658V5.5102V5.50392V5.49772V5.49162V5.48561V5.4797V5.47388V5.46815V5.46252V5.45698V5.45154V5.4462V5.44095V5.4358V5.43075V5.42579V5.42093V5.41617V5.41151V5.40695V5.40249V5.39813C14.7745 5.13191 14.7081 4.87724 14.5359 4.6786C14.3634 4.47964 14.143 4.40407 13.9698 4.37996C13.801 4.35648 13.648 4.37665 13.5497 4.39621C13.4979 4.40652 13.4542 4.41811 13.4222 4.42756C13.4061 4.43233 13.3926 4.43667 13.382 4.44019L13.3698 4.44438L13.3684 4.44486L13.3672 4.44528L6.81546 6.69596L6.80534 6.69943L6.79538 6.70333L6.98207 7.18096C6.79538 6.70333 6.7952 6.7034 6.795 6.70347L6.79461 6.70363L6.79376 6.70396L6.79185 6.70472L6.78717 6.7066L6.77452 6.71183C6.76467 6.71598 6.752 6.72148 6.73691 6.72836C6.70682 6.74208 6.66661 6.76153 6.61961 6.78704C6.52677 6.83744 6.40138 6.91475 6.2737 7.02286C6.02207 7.23591 5.71526 7.61169 5.71526 8.16305V8.16715V8.17138V8.17574V8.18024V8.18488V8.18964V8.19454V8.19958V8.20474V8.21003V8.21546V8.22101V8.2267V8.23251V8.23845V8.24452V8.25071V8.25704V8.26348V8.27006V8.27675V8.28358V8.29052V8.29759V8.30478V8.31209V8.31953V8.32708V8.33476V8.34256V8.35047V8.3585V8.36665V8.37492V8.38331V8.39181V8.40043V8.40916V8.41801V8.42697V8.43604V8.44523V8.45453V8.46395V8.47347V8.4831V8.49285V8.5027V8.51266V8.52274V8.53292V8.5432V8.5536V8.5641V8.5747V8.58541V8.59623V8.60715V8.61817V8.62929V8.64052V8.65185V8.66328V8.67481V8.68644V8.69817V8.71V8.72193V8.73396V8.74608V8.7583V8.77061V8.78303V8.79553V8.80813V8.82083V8.83362V8.8465V8.85947V8.87253V8.88569V8.89893V8.91227V8.92569V8.93921V8.95281V8.9665V8.98028V8.99414V9.00809V9.02213V9.03624V9.05045V9.06474V9.07911V9.09356V9.1081V9.12271V9.13741V9.15219V9.16705V9.18199V9.197V9.2121V9.22727V9.24252V9.25784V9.27324V9.28872V9.30427V9.3199V9.3356V9.35137V9.36721V9.38313V9.39912V9.41518V9.4313V9.4475V9.46377V9.48011V9.49651V9.51298V9.52952V9.54613V9.5628V9.57953V9.59633V9.6132V9.63013V9.64712V9.66417V9.68129V9.69846V9.7157V9.733V9.75036V9.76777V9.78525V9.80278V9.82037V9.83801V9.85572V9.87348V9.89129V9.90916V9.92708V9.94505V9.96308V9.98116V9.99929V10.0175V10.0357V10.054V10.0723V10.0907V10.1091V10.1276V10.1461V10.1647V10.1833V10.202V10.2207V10.2395V10.2583V10.2771V10.296V10.3149V10.3339V10.3529V10.3719V10.391V10.4101V10.4293V10.4485V10.4678V10.487V10.5064V10.5257V10.5451V10.5645V10.584V10.6035V10.623V10.6425V10.6621V10.6817V10.7014V10.7211V10.7408V10.7605V10.7803V10.8001V10.8199V10.8398V10.8596V10.8795V10.8995V10.9194V10.9394V10.9594V10.9794V10.9995V11.0195V11.0396V11.0597V11.0799V11.1V11.1202V11.1404V11.1606V11.1808V11.201V11.2213V11.2416V11.2619V11.2822V11.3025V11.3228V11.3432V11.3635V11.3839V11.4043V11.4246V11.445V11.4654V11.4859V11.5063V11.5267V11.5472V11.5676V11.5881V11.6085V11.629V11.6495V11.6699V11.6904V11.7109V11.7314V11.7519V11.7723V11.7928V11.8133V11.8338V11.8543V11.8748V11.8952V11.9157V11.9362V11.9567V11.9771V11.9976V12.018V12.0385V12.0589V12.0794V12.0998V12.1202V12.1406V12.161V12.1814V12.2018V12.2221V12.2425V12.2628V12.2832V12.3035V12.3238V12.3441V12.3643V12.3846V12.4048V12.4251V12.4453V12.4655V12.4856V12.5058V12.5259V12.546V12.5661V12.5862V12.6062V12.6262V12.6462V12.6662V12.6862V12.7061V12.726V12.7459V12.7657V12.7856V12.8054V12.8251V12.8449V12.8646V12.8843V12.9039V12.9235V12.9431V12.9627V12.9822V13.0017V13.0211V13.0406V13.0599V13.0793V13.0986V13.1179V13.1371V13.1563V13.1755V13.1946V13.2137V13.2328V13.2518V13.2707V13.2897V13.3086V13.3274V13.3462V13.3649V13.3837V13.4023V13.4209V13.4395V13.458V13.4765V13.4949V13.5133V13.5317V13.5499V13.5682V13.5864V13.6045V13.6226V13.6406V13.6586V13.6765V13.6944V13.7122V13.7299V13.7476V13.7653V13.7829V13.8004V13.8179V13.8353V13.8527V13.87V13.8872V13.9044V13.9215V13.9385V13.9555V13.9725V13.9893V14.0061V14.0229V14.0395V14.0561V14.0727V14.0892V14.1056V14.1219V14.1382V14.1544V14.1705V14.1866V14.2025V14.2185V14.2343V14.2501V14.2658V14.2814V14.297V14.3124V14.3278V14.3432V14.3584V14.3736V14.3887V14.4037V14.4186V14.4335V14.4483V14.463V14.4776V14.4921V14.5066V14.5209V14.5352V14.5494V14.5636V14.5776V14.5915V14.6054V14.6192V14.6329V14.6465V14.66V14.6734V14.6868V14.7V14.7132V14.7262V14.7392V14.7521V14.7649V14.7776V14.7902V14.8027V14.8151V14.8274V14.8396V14.8517V14.8638V14.8757V14.8875V14.8993V14.9109V14.9224V14.9338V14.9452V14.9564V14.9675V14.9786V14.9895V15.0003V15.011V15.0216V15.0321V15.0425V15.0528V15.063V15.073V15.083V15.0929V15.1026V15.1122V15.1218V15.1312V15.1405V15.1497V15.1587V15.1677V15.1765V15.1853V15.1939V15.2024V15.2108V15.2191V15.2272V15.2352V15.2432V15.251V15.2586V15.2662V15.2736V15.2809V15.2881V15.2952V15.3021V15.309V15.3157V15.3222V15.3287V15.335V15.3412V15.3473V15.3532V15.359V15.3647V15.3703V15.3757V15.381V15.3862V15.3912V15.3961V15.4009V15.4055V15.41V15.4144V15.4186V15.4227V15.4266V15.4305V15.4342V15.4377V15.4411V15.4444V15.4475V15.4505V15.4534V15.4561V15.4586V15.4611V15.4634V15.4655V15.4675V15.4693V15.4711V15.4726V15.474V15.4753V15.4764V15.4774V15.4782V15.4789V15.4794V15.4798V15.48L6.22808 15.4801M14.2645 11.2709L6.22808 15.4801M6.22808 15.4801H5.71526C5.71526 16.745 4.64547 17.9903 3.10302 18.2289L3.10255 18.229C2.33066 18.3492 1.673 18.1944 1.22304 17.8841C0.782769 17.5805 0.512821 17.1116 0.512821 16.509C0.512821 15.2626 1.69911 13.9572 3.26011 13.7141L6.22808 15.4801Z" stroke="#0CE9D3" stroke-width="1.02564"/>
<path d="M6.22549 3.52366L6 7.04732L15.451 4.20299L15.3685 0L6.22549 3.52366Z" fill="#0CE9D3"/>
</svg>
