<svg width="16" height="15" viewBox="0 0 16 15" fill="none" xmlns="http://www.w3.org/2000/svg">
<path fill-rule="evenodd" clip-rule="evenodd" d="M0.585938 11H6.62109C6.94471 11 7.20703 11.2064 7.20703 11.4609V14.2266C7.20703 14.4811 6.94471 14.6875 6.62109 14.6875H0.585938C0.262324 14.6875 0 14.4811 0 14.2266V11.4609C0 11.2064 0.262324 11 0.585938 11ZM1.17188 13.7656H6.03516V11.9219H1.17188V13.7656Z" fill="#424D64"/>
<path fill-rule="evenodd" clip-rule="evenodd" d="M0.585938 0H6.62109C6.94471 0 7.20703 0.262324 7.20703 0.585938V9.14062C7.20703 9.46424 6.94471 9.72656 6.62109 9.72656H0.585938C0.262324 9.72656 0 9.46424 0 9.14062V0.585938C0 0.262324 0.262324 0 0.585938 0ZM1.17188 8.55469H6.03516V1.17188H1.17188V8.55469Z" fill="#424D64"/>
<path fill-rule="evenodd" clip-rule="evenodd" d="M9.50464 0H14.7024C14.9811 0 15.207 0.206362 15.207 0.460938V3.22656C15.207 3.48114 14.9811 3.6875 14.7024 3.6875H9.50464C9.22593 3.6875 9 3.48114 9 3.22656V0.460938C9 0.206362 9.22593 0 9.50464 0ZM10.0093 2.76562H14.1978V0.921875H10.0093V2.76562Z" fill="#424D64"/>
<path fill-rule="evenodd" clip-rule="evenodd" d="M9.50464 5H14.7024C14.9811 5 15.207 5.26232 15.207 5.58594V14.1406C15.207 14.4642 14.9811 14.7266 14.7024 14.7266H9.50464C9.22593 14.7266 9 14.4642 9 14.1406V5.58594C9 5.26232 9.22593 5 9.50464 5ZM10.0093 13.5547H14.1978V6.17188H10.0093V13.5547Z" fill="#424D64"/>
</svg>
